<?xml version="1.0" encoding="utf-8"?>
<!-- Generator: Adobe Illustrator 21.1.0, SVG Export Plug-In . SVG Version: 6.00 Build 0)  -->
<svg version="1.1" id="Layer_1" xmlns="http://www.w3.org/2000/svg" xmlns:xlink="http://www.w3.org/1999/xlink" x="0px" y="0px"
	 width="512px" height="512px" viewBox="0 0 512 512" enable-background="new 0 0 512 512" xml:space="preserve">
<g>
	<path fill="#F76969" d="M423.4,233.3c-3.9-1-7.9,1.4-8.9,5.3c-1,3.9,1.4,7.9,5.3,8.9c52.9,13.3,71.8,29.7,71.8,40.7
		c0,10.4-17.2,26.1-65.5,39.1C381.1,339.4,321,346.1,257,346.1c-25.4,0-50.5-1.1-74.4-3.2c-4-0.4-7.6,2.6-7.9,6.6
		c-0.4,4,2.6,7.6,6.6,7.9c24.4,2.1,49.8,3.2,75.7,3.2c120.8,0,249.2-25.4,249.2-72.5C506.2,260,461.2,242.8,423.4,233.3z"/>
	<path fill="#F76969" d="M166.4,341.1l-31.3-35c-2.7-3-7.3-3.3-10.3-0.6c-3,2.7-3.3,7.3-0.6,10.3l20.3,22.7
		C64.3,327,22.4,305,22.4,288.2c0-12.5,24.3-31.8,92.8-45.4c4-0.8,6.5-4.6,5.7-8.6c-0.8-4-4.6-6.5-8.6-5.7
		C73.3,236.2,7.8,254.2,7.8,288.2c0,39.8,88.6,58,134.4,64.8l-21.1,18.9c-3,2.7-3.3,7.3-0.6,10.3c1.4,1.6,3.4,2.4,5.4,2.4
		c1.7,0,3.5-0.6,4.9-1.9l31.2-27.9c1.8-0.7,3.3-2,4.1-3.7C168.8,348.3,168.9,343.9,166.4,341.1z"/>
	<path fill="#00BBE7" d="M138.5,187.7h36.6l-26.9,29.6c-1,1.2-1.6,2.2-2.1,3c-0.4,0.8-0.6,1.9-0.6,3c0,2,0.6,3.7,1.7,5
		c1.2,1.3,2.7,2,4.6,2c1.2,0,2.9-0.3,5.2-1c3.2-0.7,5.6-1.1,7.3-1.1c5.9,0,11,1.9,15.2,5.5c4.2,3.7,6.3,9,6.3,15.8
		c0,4.7-1.1,8.7-3.2,12.3c-2.1,3.5-4.9,6.3-8.5,8.2c-3.5,1.9-7.4,2.9-11.5,2.9c-6.6,0-12-2-16.3-6c-1.9-1.4-3.8-2.1-5.7-2.1
		c-2,0-3.7,0.8-5.2,2.5c-1.4,1.7-2.1,3.5-2.1,5.5c0,2.7,1.4,4.9,4.3,6.5c2.9,2.2,6.3,3.9,10.2,5.1c4,1.2,8.1,1.7,12.3,1.7
		c7.9,0,14.9-1.5,21.1-4.6c6.1-3.1,10.9-7.4,14.4-13.2c3.5-5.7,5.2-12.3,5.2-19.8c0-6.4-1.4-12.3-4.1-17.4
		c-2.7-5.2-6.5-9.3-11.3-12.3c-4.8-3-10.2-4.5-16.2-4.5l24.6-27.3c2-2,3-4,3-5.9c0-2.1-0.7-3.9-2.1-5.4c-1.4-1.5-3.3-2.2-5.7-2.2
		h-50.6c-2,0-3.7,0.6-5.1,1.9c-1.4,1.3-2.1,2.9-2.1,4.9c0,2,0.7,3.7,2.1,5.1C134.8,187,136.5,187.7,138.5,187.7z"/>
	<path fill="#00BBE7" d="M232.7,280.4c5.5,3.9,12.1,5.9,19.7,5.9c6.7,0,12.7-1.6,18.2-4.9c5.5-3.3,9.8-7.7,13-13.2
		c3.2-5.5,4.8-11.6,4.8-18.1c0-6.4-1.6-12.5-4.7-18.1c-3.1-5.6-7.3-10.1-12.4-13.4c-5.2-3.3-10.7-5-16.5-5c-8,0-15.2,2.9-21.4,8.7
		c2.7-8,7.3-15.3,13.6-21.7c6.3-6.4,13.2-11,20.6-13.6c2-0.5,3.6-1.5,4.8-2.9c1.2-1.4,1.7-3,1.7-4.8c0-2.5-0.7-4.4-2.1-5.5
		c-1.4-1.2-3.2-1.7-5.5-1.7c-1,0-1.9,0.2-2.9,0.5c-11.3,3.6-20.6,9.6-27.8,18c-7.2,8.4-12.4,17.5-15.6,27.3
		c-3.2,9.8-4.8,18.7-4.8,26.9c0,7.3,1.5,14.1,4.4,20.4C222.9,271.4,227.1,276.5,232.7,280.4z M237,234.1c4.1-4.4,9.3-6.6,15.6-6.6
		c6.1,0,11.1,2.2,15,6.6c3.9,4.4,5.8,9.7,5.8,15.9c0,6.4-2,11.8-6,16c-4,4.2-9,6.3-15.1,6.3c-6.3,0-11.5-2.1-15.5-6.4
		c-4-4.3-5.9-9.5-5.9-15.6C230.9,243.9,232.9,238.5,237,234.1z"/>
	<path fill="#00BBE7" d="M320.1,279c6.1,4.9,13.5,7.3,22.2,7.3c8.7,0,16.1-2.4,22.2-7.3c6.1-4.9,10.7-11.6,13.9-20.1
		c3.1-8.6,4.7-18.4,4.7-29.6c0-11.2-1.6-21.1-4.7-29.6c-3.1-8.6-7.7-15.3-13.9-20.1c-6.1-4.9-13.5-7.3-22.2-7.3
		c-8.7,0-16.1,2.4-22.2,7.3c-6.1,4.9-10.8,11.6-13.9,20.1c-3.1,8.6-4.7,18.4-4.7,29.6c0,11.2,1.6,21.1,4.7,29.6
		C309.3,267.4,314,274.1,320.1,279z M324.3,198.3c4.3-7.3,10.3-10.9,18-10.9c7.7,0,13.7,3.6,18,10.9c4.3,7.3,6.4,17.6,6.4,30.9
		c0,13.3-2.1,23.6-6.4,30.9c-4.3,7.3-10.3,10.9-18,10.9c-7.7,0-13.7-3.6-18-10.9c-4.3-7.3-6.4-17.6-6.4-30.9
		C317.9,215.9,320,205.6,324.3,198.3z"/>
	<path fill="#00BBE7" d="M412,187.6c15.7,0,28.5-12.8,28.5-28.5c0-15.7-12.8-28.5-28.5-28.5c-15.7,0-28.5,12.8-28.5,28.5
		C383.5,174.8,396.3,187.6,412,187.6z M412,143.1c8.8,0,16,7.2,16,16s-7.2,16-16,16c-8.8,0-16-7.2-16-16S403.2,143.1,412,143.1z"/>
</g>
</svg>
