<?xml version="1.0"?>
<svg xmlns="http://www.w3.org/2000/svg" xmlns:xlink="http://www.w3.org/1999/xlink" version="1.1" id="Capa_1" x="0px" y="0px" viewBox="0 0 58 58" style="enable-background:new 0 0 58 58;" xml:space="preserve" width="512px" height="512px" class=""><g><path style="fill:#F37A8A" d="M6.005,58L6.005,58c-2.75,0-5-2.25-5-5V30h10v23C11.005,55.75,8.755,58,6.005,58z" data-original="#CEC9AE" class="" data-old_color="#CEC9AE"/><rect x="11.005" style="fill:#F37A8A" width="45.99" height="11" data-original="#CEC9AE" class="" data-old_color="#CEC9AE"/><path style="fill:#EDEADA;" d="M11.005,35v7v11c0,2.75-2.25,5-5,5h5h6h35c2.756,0,4.99-2.234,4.99-4.99V13h-45.99V35z" data-original="#EDEADA" class=""/><rect x="11.005" y="11" style="fill:#F4F3ED;" width="45.99" height="2" data-original="#F4F3ED" class=""/><rect x="17.005" y="16" style="fill:#56C7DA" width="12" height="12" data-original="#61B872" class="active-path" data-old_color="#61B872"/><path style="fill:#F37A8A" d="M51.005,17h-16c-0.553,0-1-0.447-1-1s0.447-1,1-1h16c0.553,0,1,0.447,1,1S51.558,17,51.005,17z" data-original="#CEC9AE" class="" data-old_color="#CEC9AE"/><path style="fill:#F37A8A" d="M51.005,23h-16c-0.553,0-1-0.447-1-1s0.447-1,1-1h16c0.553,0,1,0.447,1,1S51.558,23,51.005,23z" data-original="#CEC9AE" class="" data-old_color="#CEC9AE"/><path style="fill:#F37A8A" d="M51.005,29h-16c-0.553,0-1-0.447-1-1s0.447-1,1-1h16c0.553,0,1,0.447,1,1S51.558,29,51.005,29z" data-original="#CEC9AE" class="" data-old_color="#CEC9AE"/><path style="fill:#F37A8A" d="M51.005,35h-33c-0.553,0-1-0.447-1-1s0.447-1,1-1h33c0.553,0,1,0.447,1,1S51.558,35,51.005,35z" data-original="#CEC9AE" class="" data-old_color="#CEC9AE"/><path style="fill:#F37A8A" d="M33.005,41h-15c-0.553,0-1-0.447-1-1s0.447-1,1-1h15c0.553,0,1,0.447,1,1S33.558,41,33.005,41z" data-original="#CEC9AE" class="" data-old_color="#CEC9AE"/><path style="fill:#F37A8A" d="M33.005,47h-15c-0.553,0-1-0.447-1-1s0.447-1,1-1h15c0.553,0,1,0.447,1,1S33.558,47,33.005,47z" data-original="#CEC9AE" class="" data-old_color="#CEC9AE"/><path style="fill:#F37A8A" d="M33.005,53h-15c-0.553,0-1-0.447-1-1s0.447-1,1-1h15c0.553,0,1,0.447,1,1S33.558,53,33.005,53z" data-original="#CEC9AE" class="" data-old_color="#CEC9AE"/><rect x="39.005" y="40" style="fill:#F7B563" width="12" height="12" data-original="#F7B563" class=""/><rect x="23.005" y="4" style="fill:#DEDFE0" width="22" height="4" data-original="#8E8872" class="" data-old_color="#8E8872"/></g> </svg>
