<?xml version="1.0"?>
<svg xmlns="http://www.w3.org/2000/svg" xmlns:xlink="http://www.w3.org/1999/xlink" version="1.1" id="Capa_1" x="0px" y="0px" viewBox="0 0 512 512" style="enable-background:new 0 0 512 512;" xml:space="preserve" width="512px" height="512px" class=""><g><g>
	<g>
		<path d="M256,277.333c-35.346,0-64,28.654-64,64c0,35.346,28.654,64,64,64c35.332-0.035,63.965-28.668,64-64    C320,305.987,291.346,277.333,256,277.333z M256,384c-23.564,0-42.667-19.102-42.667-42.667c0-23.564,19.103-42.667,42.667-42.667    s42.667,19.102,42.667,42.667C298.667,364.898,279.564,384,256,384z" data-original="#000000" class="active-path" data-old_color="#000000" fill="#06BDCD"/>
	</g>
</g><g>
	<g>
		<path d="M288,384h-64c-29.441,0.035-53.298,23.893-53.333,53.333v64c0,5.891,4.776,10.667,10.667,10.667h149.333    c5.891,0,10.667-4.776,10.667-10.667v-64C341.298,407.893,317.441,384.035,288,384z M320,490.667H192v-53.333    c0-17.673,14.327-32,32-32h64c17.673,0,32,14.327,32,32V490.667z" data-original="#000000" class="active-path" data-old_color="#000000" fill="#06BDCD"/>
	</g>
</g><g>
	<g>
		<path d="M426.667,224c-35.346,0-64,28.654-64,64s28.654,64,64,64c35.332-0.035,63.965-28.668,64-64    C490.667,252.654,462.013,224,426.667,224z M426.667,330.667C403.103,330.667,384,311.564,384,288s19.103-42.667,42.667-42.667    s42.667,19.103,42.667,42.667S450.231,330.667,426.667,330.667z" data-original="#000000" class="active-path" data-old_color="#000000" fill="#06BDCD"/>
	</g>
</g><g>
	<g>
		<path d="M458.667,330.667h-64c-29.441,0.035-53.298,23.893-53.333,53.333h21.333c0-17.673,14.327-32,32-32h64    c17.673,0,32,14.327,32,32v53.333h-128v21.333h138.667c5.891,0,10.667-4.776,10.667-10.667v-64    C511.965,354.559,488.107,330.702,458.667,330.667z" data-original="#000000" class="active-path" data-old_color="#000000" fill="#06BDCD"/>
	</g>
</g><g>
	<g>
		<path d="M85.333,224c-35.346,0-64,28.654-64,64s28.654,64,64,64c35.332-0.035,63.965-28.668,64-64    C149.333,252.654,120.68,224,85.333,224z M85.333,330.667c-23.564,0-42.667-19.103-42.667-42.667s19.102-42.667,42.667-42.667    S128,264.436,128,288S108.897,330.667,85.333,330.667z" data-original="#000000" class="active-path" data-old_color="#000000" fill="#06BDCD"/>
	</g>
</g><g>
	<g>
		<path d="M53.333,352h64c17.673,0,32,14.327,32,32h21.333c-0.035-29.441-23.893-53.298-53.333-53.333h-64    C23.893,330.702,0.035,354.559,0,384v64c0,5.891,4.776,10.667,10.667,10.667h138.667v-21.333h-128V384    C21.333,366.327,35.66,352,53.333,352z" data-original="#000000" class="active-path" data-old_color="#000000" fill="#06BDCD"/>
	</g>
</g><g>
	<g>
		<path d="M266.667,0H32C14.327,0,0,14.327,0,32v128c0,17.673,14.327,32,32,32h102.251l60.875,60.875c2,2,4.713,3.125,7.541,3.125    c1.402,0.005,2.791-0.271,4.085-0.811c3.985-1.652,6.582-5.542,6.581-9.856V192h53.333c17.673,0,32-14.327,32-32V32    C298.667,14.327,284.34,0,266.667,0z M277.333,160c0,5.891-4.776,10.667-10.667,10.667h-64c-5.891,0-10.667,4.776-10.667,10.667    v38.251l-45.792-45.792c-2-2.001-4.713-3.125-7.541-3.125H32c-5.891,0-10.667-4.776-10.667-10.667V32    c0-5.891,4.776-10.667,10.667-10.667h234.667c5.891,0,10.667,4.776,10.667,10.667V160z" data-original="#000000" class="active-path" data-old_color="#000000" fill="#06BDCD"/>
	</g>
</g><g>
	<g>
		<path d="M480,53.333H320v21.333h160c5.891,0,10.667,4.776,10.667,10.667V128c0,5.891-4.776,10.667-10.667,10.667h-85.333    c-3.357,0-6.519,1.581-8.533,4.267L373.333,160v-10.667c0-5.891-4.776-10.667-10.667-10.667H320V160h32v32    c0,5.891,4.776,10.667,10.667,10.667c3.357,0,6.519-1.581,8.533-4.267L400,160h80c17.673,0,32-14.327,32-32V85.333    C512,67.66,497.673,53.333,480,53.333z" data-original="#000000" class="active-path" data-old_color="#000000" fill="#06BDCD"/>
	</g>
</g><g>
	<g>
		<rect x="362.667" y="96" width="106.667" height="21.333" data-original="#000000" class="active-path" data-old_color="#000000" fill="#06BDCD"/>
	</g>
</g><g>
	<g>
		<rect x="320" y="96" width="21.333" height="21.333" data-original="#000000" class="active-path" data-old_color="#000000" fill="#06BDCD"/>
	</g>
</g><g>
	<g>
		<path d="M74.667,64c-17.673,0-32,14.327-32,32s14.327,32,32,32c17.673,0,32-14.327,32-32S92.34,64,74.667,64z M74.667,106.667    C68.776,106.667,64,101.891,64,96s4.776-10.667,10.667-10.667c5.891,0,10.667,4.776,10.667,10.667S80.558,106.667,74.667,106.667z    " data-original="#000000" class="active-path" data-old_color="#000000" fill="#06BDCD"/>
	</g>
</g><g>
	<g>
		<path d="M149.333,64c-17.673,0-32,14.327-32,32s14.327,32,32,32c17.673,0,32-14.327,32-32S167.006,64,149.333,64z     M149.333,106.667c-5.891,0-10.667-4.776-10.667-10.667s4.776-10.667,10.667-10.667C155.224,85.333,160,90.109,160,96    S155.224,106.667,149.333,106.667z" data-original="#000000" class="active-path" data-old_color="#000000" fill="#06BDCD"/>
	</g>
</g><g>
	<g>
		<path d="M224,64c-17.673,0-32,14.327-32,32s14.327,32,32,32s32-14.327,32-32S241.673,64,224,64z M224,106.667    c-5.891,0-10.667-4.776-10.667-10.667S218.109,85.333,224,85.333S234.667,90.109,234.667,96S229.891,106.667,224,106.667z" data-original="#000000" class="active-path" data-old_color="#000000" fill="#06BDCD"/>
	</g>
</g></g> </svg>
